<?xml version="1.0" encoding="utf-8"?>
<!-- Generator: Adobe Illustrator 27.4.1, SVG Export Plug-In . SVG Version: 6.00 Build 0)  -->
<svg version="1.1" id="Layer_1" xmlns="http://www.w3.org/2000/svg" xmlns:xlink="http://www.w3.org/1999/xlink" x="0px" y="0px"
	 viewBox="0 0 1287.27 788.63" style="enable-background:new 0 0 1287.27 788.63;" xml:space="preserve">
<path d="M256.38,204.64c3.19,1.78,6.06,1.07,8.86,0.44c6.5-1.48,11.71-5.32,16.58-9.59c24.21-21.22,45.47-44.9,61.61-73.01
	c9.18-15.99,19-31.67,30.94-45.81c4.11-4.87,8.89-9.46,14.13-13.05c9.61-6.58,18.71-3.62,23.7,6.93c3.4,7.2,3.6,14.93,3.48,22.69
	c-0.2,12.78-2.78,25.25-4.76,37.81c-1.91,12.1-3.45,24.26-4.86,36.42c-0.48,4.17-0.08,8.44-0.08,12.67
	c0.37,0.06,0.74,0.12,1.11,0.19c0.6-1.24,1.28-2.45,1.78-3.72c6.76-17.34,13.62-34.65,20.21-52.05
	c8.32-21.98,18.58-43.03,30.71-63.12c3.38-5.61,8.04-10.48,12.34-15.49c1.24-1.45,3.19-2.43,4.98-3.23c4.51-2,8.6-0.77,12.03,3.5
	c4,4.96,5.68,10.93,6.97,16.99c3.3,15.44,3.33,31.02,2.02,46.68c-1.51,18.16-4.91,35.98-9.55,53.58c-0.11,0.43-0.16,0.87-0.37,2.02
	c0.95-1.15,1.43-1.83,2.01-2.43c2.88-3.02,5.47-6.41,8.72-8.94c9.38-7.3,20.39-6.45,28.86,1.87c7.64,7.51,11.8,16.94,14.36,27.11
	c5.32,21.13,6.59,42.35,0.36,63.54c-3.21,10.93-8.63,20.59-17.49,28.04c-14.01,11.79-31.41,12.38-46.16,1.58
	c-8.2-6-14.51-13.72-19.88-22.23c-3.63-5.76-6.85-11.78-10.45-17.56c-1.57-2.52-3.44-4.93-5.53-7.03c-2.79-2.8-6.46-3.63-10.08-2.12
	c-3.22,1.35-6.44,3.07-9.1,5.28c-5.93,4.94-11.42,10.41-17.29,15.43c-3.99,3.41-8.09,6.81-12.57,9.53
	c-7.83,4.76-14.94,3.25-20.82-3.8c-4.09-4.9-6.41-10.72-8.53-16.64c-1.78-4.95-3.36-9.99-5.4-14.84c-2.46-5.85-5.18-7.27-10.94-4.64
	c-6.82,3.11-13.61,6.62-19.69,10.97c-16.33,11.68-32.36,23.79-48.34,35.94c-18.19,13.84-37.72,25.11-60.04,30.59
	c-33.61,8.26-62.06-1.34-85.4-26.43c-7.21-7.75-9.97-17.7-10.67-28.04c-2.11-31.12,8.06-58.25,27.58-82.12
	c13.45-16.45,29.97-28.51,50.71-34.13c13.3-3.61,26.7-4.14,39.55,1.51c17.35,7.64,27.81,20.89,29.11,40.11
	c0.89,13.15-4.22,24.7-12,35.11C258.31,202.23,257.46,203.27,256.38,204.64z"/>
<path d="M142.95,471.25c1.45-13.81,3.09-27.6,4.28-41.43c0.56-6.48,0.62-13.04,0.27-19.54c-0.24-4.33-2.44-4.97-6-2.19
	c-5.94,4.64-11.65,9.59-17.69,14.1c-11.58,8.64-23.9,16.04-38.19,19.15c-5.16,1.12-10.67,1.63-15.92,1.17
	c-9.08-0.81-15.52-6.17-19.74-14.14c-4.39-8.28-5.95-17.29-6.56-26.51c-1.28-19.15,3.43-37.12,10.92-54.52
	c8.54-19.85,19.93-37.79,36.3-52.12c4.61-4.03,9.84-7.55,15.26-10.39c15.35-8.05,31.01-5.64,43.81,6.1
	c6.03,5.53,10.03,12.39,13.22,19.79c6.2,14.35,9.74,29.46,12.53,44.76c5.6,30.73,10.81,61.54,18.58,91.83
	c1.2,4.66,2.55,9.28,3.93,13.89c0.54,1.82,1.26,3.6,2.07,5.33c1.78,3.81,3.07,4.03,5.22,0.36c2.74-4.68,5.46-9.5,7.28-14.58
	c7.13-19.92,13.82-39.99,20.81-59.95c8.14-23.22,16.06-46.55,27.12-68.61c7.65-15.26,16.63-29.67,29.29-41.4
	c9.17-8.49,19.66-14.58,32.24-16.54c22.38-3.5,41.32,10.27,44.99,32.63c2.63,15.98-0.14,31.3-5.3,46.34
	c-7.75,22.57-20.08,42.65-33.73,62.02c-14.08,19.98-28.36,39.82-41.88,60.17c-12.33,18.56-21.66,38.62-26.86,60.45
	c-4.04,16.97-4.78,34.13-3.75,51.46c1.31,22.12,6.04,43.69,10.27,65.34c1.83,9.37,3.24,18.81,1.97,28.43
	c-1.04,7.83-5.25,13.38-11.69,14.81c-4.1,0.91-8.12,0.28-12.04-1.19c-9.42-3.53-16.88-9.89-23.95-16.74
	c-16.27-15.77-28.17-34.63-38.02-54.83c-16.28-33.39-28.58-68.13-34.78-104.87c-2.15-12.73-3.63-25.54-3.49-38.49
	C143.47,471.3,143.21,471.27,142.95,471.25z"/>
<path d="M944.02,213.03c1.78-3.04,3.64-6.03,5.32-9.12c8.55-15.66,17.63-30.97,29.79-44.18c10.78-11.72,22.99-21.52,38.32-26.6
	c15.65-5.19,30.91-4.78,44.65,5.4c10.93,8.1,17.34,19.39,19.59,32.65c4.03,23.76-2.56,44.09-21.22,59.87
	c-6.3,5.33-13.65,8.6-22.09,8.89c-10.81,0.36-18.74-4.51-23.94-13.72c-5.16-9.13-6.14-19.27-6.25-29.53c-0.01-0.87,0-1.74,0-3.4
	c-16.2,15.71-33.21,29.76-42.49,50.55c4.22,0,8.13-0.24,11.99,0.04c14.28,1.06,25.61,8.05,35.26,18.15
	c6.28,6.58,10.75,14.38,14.66,22.53c5.42,11.3,10.73,22.65,16.29,33.88c1.56,3.14,3.63,6.09,5.84,8.83c2.22,2.75,4.28,2.8,6.64,0.19
	c2.74-3.02,5.23-6.29,7.63-9.59c7.88-10.82,16.72-20.63,28.53-27.31c11.47-6.49,23.66-9.96,36.87-7.43
	c23.56,4.52,36.24,27.1,28.22,50.05c-5.23,14.95-15.4,26.07-28.39,34.55c-22.21,14.5-46.69,21.19-73.23,19.31
	c-20.95-1.48-38.26-10.84-51.43-26.92c-10.05-12.28-18.89-25.55-28.36-38.31c-7.09-9.55-14.28-19.03-21.56-28.43
	c-1.38-1.79-3.42-3.07-5.78-5.13c-0.68,2.45-1.44,4.04-1.51,5.65c-0.26,6.17-0.41,12.34-0.4,18.52c0.05,16.18,0.43,32.35,0.24,48.53
	c-0.1,8.72-1.28,17.42-4.32,25.69c-1.08,2.95-2.51,5.88-4.3,8.45c-4,5.71-9.75,7.38-16.04,4.37c-3.55-1.7-6.92-4.06-9.82-6.73
	c-4.06-3.75-7.55-8.1-11.36-12.12c-2.18-2.3-4.35-4.66-6.81-6.65c-3.51-2.84-7.65-3.63-11.76-1.61c-4.39,2.15-8.66,4.58-12.75,7.27
	c-10.34,6.79-20.69,13.52-32.47,17.65c-10.81,3.79-21.89,5.45-33.24,3.31c-15.81-2.97-27.26-11.82-33.3-26.79
	c-7.64-18.92-6.81-37.7,2.9-55.74c4.44-8.24,11.22-14.01,20.79-15.76c6.87-1.26,13.15,0.52,19.04,3.99
	c8.07,4.76,14.14,11.6,19.75,18.93c2.1,2.74,4.2,5.49,6.53,8.03c2.38,2.59,4.23,2.74,7.28,1c1.58-0.9,3.12-1.87,4.57-2.96
	c13.17-9.85,27.5-10.96,42.62-5.59c4.94,1.75,9.76,3.86,15,5.95c0.12-1.22,0.29-2.15,0.28-3.09c-0.08-18.6,2.16-36.98,4.97-55.32
	c0.7-4.56,0.7-9.23,1.03-13.85c0.29-3.99-1.45-6.86-4.52-9.34c-5.44-4.39-10.91-8.79-15.93-13.65
	c-22.26-21.53-39.84-46.27-49.85-75.79c-7.53-22.19-8.63-44.87-2.36-67.61c1.21-4.39,3.25-8.73,5.72-12.57
	c6.08-9.48,15.13-12.34,25.84-8.77c6.62,2.21,12.04,6.3,16.99,11.06c11.42,10.98,19.05,24.45,25.04,38.92
	c8.37,20.21,13.63,41.36,18.55,62.61c1.8,7.78,3.62,15.56,5.55,23.31c0.47,1.88,1.42,3.63,2.14,5.44
	C943.33,213.01,943.68,213.02,944.02,213.03z"/>
<path d="M950.39,443.62c1.17-6.92,1.98-13.57,3.47-20.07c2.54-11.06,7.15-21.16,15.53-29.17c11.99-11.46,28.06-14.07,42.24-6.87
	c13.18,6.69,19.75,21.08,16.24,36.14c-2.34,10.07-7.48,18.52-15.94,24.64c-9.44,6.83-17.61,6.11-26.1-2.38
	c-1.53,7.48-3.01,14.69-4.59,22.38c2.78-0.36,5.24-0.7,7.7-1c17.31-2.07,34.16,0.25,50.4,6.21c52.62,19.33,85.1,56.58,96.31,111.44
	c6.5,31.79-0.97,60.76-23.1,85.04c-14.34,15.73-32.13,25.95-53.53,28.33c-20.82,2.32-38.85-3.46-51.25-21.45
	c-8.8-12.77-9.67-26.94-4.42-41.16c2.9-7.85,7.09-15.31,11.33-22.57c6.81-11.65,13.42-23.36,16.21-36.71
	c4.55-21.72,1.09-41.97-12.29-59.97c-5.16-6.95-11.67-12.53-20.51-14.47c-5.38-1.18-10.03,0.07-13.4,4.11
	c7.53,7.47,15.13,14.61,22.28,22.17c9.98,10.55,16.3,23.05,18.62,37.5c3.21,19.94-7.97,39.3-26.14,44.19
	c-15.77,4.24-29.6-0.45-41.15-11.36c-13.95-13.17-18.62-29.87-16.86-48.66c0.46-4.88,0.98-9.77,1.25-14.66
	c0.63-11.37-2.57-21.59-10.89-29.48c-11.52-10.94-23.38-21.55-35.33-32.03c-11.21-9.83-22.89-19.17-31.93-31.18
	c-2.93-3.9-5.68-8.07-7.7-12.49c-7.13-15.63,0.34-29.34,17.3-32.1c16.03-2.61,30.4,2.04,43.69,10.64
	c12.66,8.2,22.34,19.33,30.49,31.88C949,441.51,949.64,442.48,950.39,443.62z"/>
<path d="M811.59,473.79c18.31-12.21,36.69-10.47,55.01-1.17c12.58,6.39,23.14,15.45,31.41,26.9c12.5,17.29,22.53,35.87,27.1,56.92
	c3.01,13.86,2.84,27.99,2.28,42.09c-0.15,3.8-0.38,7.6-0.58,11.67c1.87-0.84,3.54-1.68,5.27-2.37c11.48-4.55,21.22-2.28,28.65,7.52
	c16.37,21.58,17.41,53.59-1.82,74.39c-7.88,8.52-17.47,14.13-29.17,15.63c-9.95,1.27-18.29-1.87-24.92-9.35
	c-6.65-7.5-10.29-16.59-11.96-26.23c-2.03-11.7-3.51-23.53-4.44-35.37c-1.84-23.45-2.67-47-7.76-70.08
	c-3.17-14.37-7.47-28.34-16.39-40.32c-2.62-3.52-6.04-6.49-9.28-9.5c-1.22-1.13-2.94-1.81-4.54-2.41c-5.14-1.91-8.88-0.27-9.82,5.12
	c-0.8,4.58-1.25,9.55-0.33,14.03c3.23,15.73,6.88,31.38,10.81,46.95c5.25,20.82,9.82,41.74,10.91,63.26
	c0.82,16.19-0.18,32.23-6.38,47.43c-1.92,4.72-4.6,9.37-7.88,13.24c-7.36,8.68-17.76,8.99-26.19,1.37
	c-7.51-6.8-11.12-15.8-13.92-25.19c-3.69-12.42-5.35-25.22-6.54-38.07c-2.31-24.88-4.05-49.81-6.75-74.64
	c-2.65-24.38-7.8-48.24-18.64-70.51c-14.16-29.1-35.96-50.96-64.36-66.03c-16.51-8.76-33.56-16.51-50.48-24.47
	c-23.6-11.1-47.12-22.33-69.05-36.56c-12.35-8.01-23.68-17.21-32.87-28.81c-6.92-8.73-12.03-18.38-13.98-29.49
	c-0.89-5.06-0.9-10.14,0.53-15.13c2.81-9.8,11.42-16.44,22.23-17.2c25.37-1.78,48.99,17.96,51.58,43.18
	c0.57,5.57-0.75,10.89-3.37,15.77c-1.2,2.23-0.72,3.25,1.28,4.5c26.58,16.52,53.92,31.51,82.92,43.46
	c16.36,6.74,32.76,13.54,48.54,21.5c28.79,14.51,49.75,36.77,62.26,66.7C811.11,472.96,811.35,473.34,811.59,473.79z"/>
<path d="M370.29,639.67c-4.81-8.97-6.61-18.05-6.88-27.51c-0.2-7.07,0.55-13.96,3.68-20.44c8.4-17.41,27.85-20.94,41.83-7.58
	c8.25,7.88,12.48,17.82,14.11,28.84c4.45,30.18-12.28,60.61-40.12,73.16c-19.48,8.78-37.6,5.53-54.35-6.96
	c-13.27-9.9-23.01-22.88-31.1-37.16c-12.83-22.66-20.1-47.12-23.92-72.81c-5.55-37.31,2.96-71.39,22.55-103.15
	c17.35-28.13,36.32-55.08,58.46-79.66c8.43-9.36,17.8-17.79,29.39-23.12c17.16-7.89,34.36-7.93,51.01,1.45
	c9.21,5.19,14.96,13.63,19.26,23.06c5.98,13.12,9.32,26.97,10.22,41.31c1.46,23.33-2.1,45.84-12.07,67.15
	c-10.24,21.87-26.56,38-47.49,49.52c-10.73,5.91-21.9,11.03-32.81,16.6c-9.46,4.83-18.3,10.55-24.67,19.31
	c-6.19,8.51-9.81,17.99-9.95,28.62c-0.19,15.07,8.84,26,23.68,28.78c1.6,0.3,3.23,0.47,4.86,0.59
	C367.22,639.75,368.49,639.67,370.29,639.67z M383.57,485.28c-0.11-1.51-0.14-2.87-0.31-4.22c-0.97-7.64-8.07-11.01-14.49-6.7
	c-8.48,5.68-15.3,12.95-18.82,22.66c-1.39,3.82-2.14,8.12-2.01,12.17c0.17,5.85,4.54,9.06,10.31,7.93c3.3-0.65,6.8-1.77,9.5-3.67
	C377.45,506.61,382.24,496.81,383.57,485.28z"/>
<path d="M540.55,696.45c-0.6-9.39,0.83-17.53,3.94-25.43c7.69-19.54,24.11-24.98,41.77-19.55c21.16,6.52,34.5,26.44,32.62,48.48
	c-0.86,10.13-5.42,18.76-12.18,26.24c-19.87,21.98-50.51,26.86-77.72,12.49c-11.07-5.85-20.16-14.21-29.23-22.62
	c-1.73-1.6-3.56-3.11-5.32-4.68c-9.36-8.4-20.33-10.79-32.48-8.64c-7.78,1.38-15.5,3.08-23.3,4.28c-3.55,0.54-7.28,0.61-10.86,0.21
	c-8.63-0.96-13.98-6.95-14.6-15.66c-0.61-8.44,1.11-16.55,4.29-24.22c4.65-11.23,9.55-22.39,14.95-33.28
	c16.09-32.52,27.86-66.44,34.05-102.24c5.02-29.09,7.65-58.38,6.64-87.92c-0.56-16.38-2.64-32.58-7.13-48.41
	c-7.58-26.73-24.1-46-48.67-58.58c-4.45-2.28-9-4.34-13.39-6.74c-12.3-6.72-20.15-16.77-21.15-31
	c-1.22-17.31,10.69-32.91,27.92-37.53c17.82-4.77,35.85,3.1,45.02,19.83c5.29,9.65,7.73,19.88,4.36,30.7
	c-1.3,4.18-3.68,8.02-5.63,12.14c1.16,0.4,2.69,0.9,4.19,1.45c13.48,4.99,24.42,13.56,33.54,24.46
	c20.5,24.51,32.26,52.85,36.23,84.45c3.97,31.62,1.29,62.89-5.09,94.01c-4.23,20.63-8.26,41.32-11.4,62.14
	c-4.6,30.56-1.28,60.21,13.35,87.92c2.55,4.83,6.19,9.14,9.61,13.46C536.16,693.82,538.26,694.78,540.55,696.45z"/>
<path d="M661.7,544.19c-1.45,1.75-3.14,3.36-4.29,5.28c-4.74,7.88-6.37,16.68-6.07,25.66c0.98,29.77,9.02,57.48,25.35,82.54
	c2.65,4.07,5.94,7.88,9.55,11.12c11.23,10.07,24.51,10.29,36.46,1.01c6.85-5.31,12.02-12.11,16.69-19.3
	c3.81-5.87,7.21-12,11.13-17.78c2.17-3.2,4.71-6.3,7.65-8.77c6.13-5.16,13.53-4.48,18.99,1.44c5.46,5.92,7.76,13.31,8.69,21.08
	c2.89,24.23-6.35,44.3-22.01,61.9c-9.76,10.97-21.88,18.25-36.48,20.81c-18.24,3.19-34.55-1.57-49.23-12.52
	c-12.65-9.44-21.66-21.89-29.25-35.5c-10.8-19.37-18.58-40-25.23-61.08c-7.71-24.42-15.29-48.89-20.24-74.06
	c-4.13-21.03-6.38-42.23-4.65-63.69c1.18-14.58,4.43-28.56,13.14-40.72c8.32-11.62,19.8-17.81,33.94-18.53
	c31.78-1.62,58.35,10.34,80.07,32.87c22.41,23.26,35.26,51.53,40.14,83.36c1.58,10.29,1.32,20.67-1.1,30.89
	c-7.64,32.22-36.76,41.76-60.94,33.21c-23.26-8.23-36.32-25.65-41.28-49.42c-0.63-3.01-0.09-6.26-0.09-9.4
	C662.32,544.46,662.01,544.33,661.7,544.19z"/>
<path d="M571.99,104.06c-6.41,4.5-12.99,7.9-20.39,9.51c-6.2,1.35-12.29,1.15-18.17-1.38c-7.47-3.21-11.45-9.08-12.19-17.02
	c-1.1-11.8,3.92-21.24,12.19-29.1c8.94-8.5,19.9-12.96,31.99-14.47c25.98-3.23,48.62,5.15,68.68,21.05
	c22.45,17.78,37.43,41.11,48.04,67.38c9.81,24.28,14,49.61,12.52,75.75c-0.94,16.53-4.44,32.46-14.31,46.24
	c-11.54,16.11-27.53,23.1-47.07,21.08c-25.31-2.61-44.73-15.81-58.92-36.25c-22.31-32.13-27.91-67.23-16.12-104.78
	c2.42-7.72,6.55-14.65,11.51-20.91C573.97,115.84,573.74,110.4,571.99,104.06z M618.6,181.08c-0.58-8.55-2.63-15.76-6.49-20.08
	c-1.81-2.03-3.85-4.33-6.83-3.78c-3.21,0.6-4.41,3.64-4.67,6.41c-0.58,6.29-1.24,12.67-0.71,18.92c0.36,4.26,2.42,8.46,4.2,12.47
	c1.08,2.45,3.02,4.98,6.08,4.78c3.25-0.21,4.59-3.2,5.39-5.85C616.85,189.74,617.61,185.38,618.6,181.08z"/>
<path d="M1104.42,404.79c7.96,1.26,15.93,2.53,23.89,3.77c2.06,0.32,4.13,0.63,6.21,0.77c7.7,0.51,13.86-2.42,18.35-8.65
	c4.83-6.71,9.36-13.64,14.32-20.24c6.47-8.6,13.69-16.53,22.82-22.45c13.34-8.65,25.68-7.12,36.32,4.68
	c9.04,10.03,13.5,22.23,16.07,35.25c2.83,14.32,1.67,28.58-0.58,42.83c-3.66,23.17-9.83,45.62-19.68,66.94
	c-9.1,19.7-21.59,36.79-39.64,49.33c-3.27,2.27-6.57,4.77-10.24,6.14c-8.46,3.14-15.71-0.4-22.05-5.72
	c-3.02-2.53-5.55-5.79-7.8-9.06c-13.6-19.81-30-36.84-49.1-51.44c-10.42-7.97-19.63-17.32-27.04-28.26c-6.3-9.3-9.95-19.4-8.5-30.8
	c1.56-12.24,8.34-20.85,19.14-26.44C1085.5,406.99,1094.74,405.41,1104.42,404.79z M1178.7,456.07c-0.23-1.43-0.33-3.17-0.8-4.8
	c-1.13-3.93-4.26-5.33-7.82-3.29c-1.93,1.1-3.88,2.56-5.14,4.35c-3.91,5.55-7.68,11.22-11.14,17.07c-2.3,3.88-3,4.26-6.68,1.35
	c-3.65-2.88-7.72-4.78-12.41-5.02c-3.52-0.18-5.4,1.52-4.73,4.93c0.59,3.03,1.75,6.16,3.45,8.71c8.41,12.6,24.51,14.57,34.13,4.22
	C1174.66,475.96,1177.76,466.6,1178.7,456.07z"/>
<path d="M755.87,203.55c2.22-1.08,4.02-1.91,5.78-2.82c11.15-5.79,22.79-9.92,35.48-10.58c18.17-0.95,34.03,5.36,48.62,15.54
	c12.15,8.48,22.05,18.97,27.65,32.92c5.45,13.6,5.06,27.03-2.56,39.8c-8.81,14.75-25.69,18.28-39.31,7.78
	c-5.55-4.27-10.02-9.95-14.96-15.01c-0.82-0.84-1.6-1.75-2.31-2.68c-10.48-13.65-28.27-10.98-38.14-1.31
	c-9.99,9.78-17.9,21.22-25.87,32.62c-8.06,11.53-15.95,23.21-24.6,34.29c-4.12,5.28-9.72,9.46-14.91,13.83
	c-1.88,1.58-4.42,2.52-6.81,3.32c-11.42,3.86-20.25-2.4-20.71-14.49c-0.24-6.31,1.15-12.31,3.6-18.02
	c3.86-9.01,7.96-17.92,11.99-26.86c5.24-11.64,9.37-23.61,10.89-36.38c1.29-10.82,0.6-21.6-0.59-32.36
	c-1.08-9.74-2.6-19.44-3.76-29.17c-0.76-6.32,0.82-12.11,5.02-16.98c5.47-6.35,13.82-8.13,22.97-5.02
	c7.78,2.65,13.02,8.17,16.52,15.34c1.78,3.65,2.93,7.6,4.35,11.42C754.73,200.18,755.2,201.63,755.87,203.55z"/>
<path d="M585.9,458.78c-0.77,13.57-1.14,24.02-2.01,34.43c-1.75,20.77,1.37,40.7,9.11,60.05c5.56,13.91,10.89,27.94,13.7,42.74
	c1.53,8.07,2.58,16.19,1,24.37c-2.62,13.54-11.48,20.2-25.19,18.69c-17.7-1.95-40.47-13.11-45.76-41.31
	c-2.07-11.07-0.48-21.91,2.75-32.55c3.56-11.73,7.53-23.33,10.82-35.13c4.15-14.9,4.38-30.15,2.85-45.45
	c-1.23-12.29-2.7-24.56-3.83-36.86c-0.71-7.74,0.04-15.43,1.96-22.98c1.2-4.75,3.63-8.67,7.79-11.43c4.88-3.24,9.3-2.85,13.5,1.24
	c6.11,5.94,9.5,13.36,10.81,21.57C584.76,444.64,585.31,453.26,585.9,458.78z"/>
<path d="M704.63,96.1c0.36-13.55,11.64-25.32,25.19-26.01c11.09-0.56,20.24,3.62,27.7,11.58c3.03,3.24,5.59,6.92,8.38,10.39
	c0.68,0.85,1.35,1.72,2.1,2.5c2.29,2.39,3.16,2.38,5.16-0.23c3.36-4.4,6.43-9.04,10-13.26c4.32-5.12,9.81-8.59,16.48-9.97
	c12.95-2.7,22.61,5.91,20.8,19.02c-0.73,5.33-2.03,10.8-4.24,15.68c-9.33,20.57-22.95,38.04-40.04,52.76
	c-5.5,4.74-8.45,4.94-14.95,0.64c-14.57-9.62-28.81-19.71-40.9-32.46c-5.98-6.31-11.19-13.18-13.82-21.62
	C705.58,102.2,705.24,99.11,704.63,96.1z"/>
<path d="M536.45,375.33c0.11-6.16,2.78-14.04,10.84-19.49c3.47-2.35,6.93-2.87,10.82-1.66c12.04,3.76,22.06,18.52,21.03,31.02
	c-0.67,8.12-7.98,15.29-17.01,16.68C547.32,404.16,536.43,394.19,536.45,375.33z"/>
</svg>
